OpenSim_Sub08_CSBaseline_LCS.mot
version=1
nRows=27
nColumns=11
inDegrees=no
endheader
time	Bot_Shank	2nd_Bot_Shank	2nd_Top_Shank	Top_Shank	Bot_Thigh	Med_Thigh	Top_Thigh	BNOx	BNOy	BNOZ
0	8736.01021990	9074.20322230	9568.42002784	9338.17851478	9993.01179967	10816.28886052	11276.79666681	203.67901176	-74.78706162	128.46696140
0.01000000	8736.01136787	9074.66187631	9568.41498168	9338.71517532	9993.61344645	10816.11280770	11277.39677893	203.68021178	-74.79551020	128.46588405
0.02000000	8736.01165756	9075.08302636	9568.38234928	9339.24823458	9994.30340849	10815.96598161	11277.80736616	203.68197626	-74.80289461	128.46314686
0.03000000	8736.01084490	9075.44713376	9568.32258316	9339.81532896	9995.09030071	10815.86580388	11278.04983468	203.68407897	-74.80860151	128.45893013
0.04000000	8736.00868581	9075.73465983	9568.23613585	9340.45409488	9995.98273804	10815.82969617	11278.14559064	203.68629369	-74.81201754	128.45341414
0.05000000	8736.00493623	9075.92606588	9568.12345987	9341.20216874	9996.98933537	10815.87508011	11278.11604019	203.68839419	-74.81252938	128.44677918
0.06000000	8735.99935245	9076.00182235	9567.98500935	9342.09716642	9998.11868579	10816.01936880	11277.98258862	203.69015428	-74.80952395	128.43920552
0.07000000	8735.99219560	9075.95448221	9567.82335280	9343.14945554	9999.35041015	10816.26864550	11277.76547940	203.69140100	-74.80277833	128.43084918
0.08000000	8735.98522677	9075.81250016	9567.64734134	9344.28843922	10000.57804222	10816.59532832	11277.48150386	203.69211952	-74.79322869	128.42179414
0.09000000	8735.98048437	9075.61096855	9567.46698765	9345.42855147	10001.67919964	10816.96561123	11277.14681507	203.69232427	-74.78202554	128.41211105
0.10000000	8735.98000684	9075.38497975	9567.29230441	9346.48422634	10002.53149999	10817.34568817	11276.77756612	203.69202966	-74.77031938	128.40187057
0.11000000	8735.98583257	9075.16962611	9567.13330430	9347.36989784	10003.01256091	10817.70175311	11276.38991007	203.69125009	-74.75926070	128.39114333
0.12000000	8736	9075	9567	9348	10003	10818	11276	203.69000000	-74.75000000	128.38000000
0.13000000	8736.02305617	9074.90232543	9566.90060780	9348.31495215	10002.41842216	10818.21347608	11275.63143394	203.68835554	-74.74344995	128.36854933
0.14000000	8736.04958267	9074.86735308	9566.83615844	9348.35911476	10001.38038140	10818.34264173	11275.33758968	203.68663985	-74.73957187	128.35705248
0.15000000	8736.07266972	9074.87696528	9566.80588626	9348.20283363	10000.04541902	10818.39481062	11275.17928997	203.68523785	-74.73808927	128.34580872
0.16000000	8736.08540752	9074.91304435	9566.80902561	9347.91645454	9998.57307632	10818.37729642	11275.21735757	203.68453442	-74.73872564	128.33511731
0.17000000	8736.08088630	9074.95747263	9566.84481084	9347.57032327	9997.12289461	10818.29741279	11275.51261522	203.68491446	-74.74120448	128.32527753
0.18000000	8736.05219628	9074.99213245	9566.91247630	9347.23478559	9995.85441517	10818.16247339	11276.12588566	203.68676286	-74.74524930	128.31658864
0.19000000	8735.99243043	9074.99891317	9567.01125477	9346.98017290	9994.92714349	10817.97979268	11277.11796239	203.69046437	-74.75058357	128.30934985
0.20000000	8735.89834529	9074.96903380	9567.13830218	9346.85771118	9994.45305972	10817.75772252	11278.51081434	203.69619158	-74.75693043	128.30377634
0.21000000	8735.77758314	9074.92143512	9567.28460339	9346.86185735	9994.40292897	10817.50769733	11280.21104859	203.70348674	-74.76401183	128.29983363
0.22000000	8735.63979888	9074.88018327	9567.44000230	9346.97657257	9994.72140782	10817.24172145	11282.10394357	203.71177554	-74.77154952	128.29744110
0.23000000	8735.49464741	9074.86934436	9567.59434283	9347.18581802	9995.35315288	10816.97179921	11284.07477772	203.72048370	-74.77926527	128.29651812
0.24000000	8735.35178362	9074.91298451	9567.73746890	9347.47355487	9996.24282076	10816.70993495	11286.00882947	203.72903691	-74.78688081	128.29698407
0.25000000	8735.22086241	9075.03516985	9567.85922443	9347.82374431	9997.33506806	10816.46813301	11287.79137725	203.73686088	-74.79411791	128.29875831
0.26000000	8735.11153867	9075.25996649	9567.94945332	9348.22034750	9998.57455138	10816.25839772	11289.30769951	203.74338130	-74.80069831	128.30176022
